<svg width="100%" height="100%" viewBox="0 0 48 48" version="1.1" xmlns="http://www.w3.org/2000/svg" style="fill-rule:evenodd;clip-rule:evenodd;stroke-linejoin:round;stroke-miterlimit:2;">
    <path d="M48,4C48,1.792 46.208,0 44,0L4,0C1.792,0 0,1.792 0,4L0,44C0,46.208 1.792,48 4,48L44,48C46.208,48 48,46.208 48,44L48,4Z" style="fill:#191B26;"/>
    <path d="M33.268,23.681L38.057,29.81L43.334,29.81L35.514,20.186L42.672,11L37.709,11L33.32,16.743L29.384,11L24.386,11L30.969,20.186L23.811,29.81L28.966,29.81L33.268,23.681ZM14.296,11.009C11.658,11.075 9.465,11.989 7.718,13.75C5.972,15.512 5.066,17.723 5,20.384L5,37.336L8.694,37.336L8.694,29.802L14.296,29.802C16.937,29.734 19.136,28.813 20.895,27.039C22.654,25.266 23.567,23.048 23.634,20.385C23.567,17.723 22.654,15.512 20.895,13.751C19.136,11.989 16.937,11.076 14.296,11.009L14.296,11.009ZM8.694,26.077L8.694,20.385C8.733,18.776 9.277,17.442 10.328,16.382C11.378,15.323 12.701,14.774 14.296,14.734C15.911,14.774 17.246,15.323 18.301,16.382C19.356,17.442 19.902,18.776 19.941,20.385C19.902,22.013 19.356,23.36 18.301,24.424C17.246,25.487 15.911,26.038 14.296,26.077L8.694,26.077Z" style="fill:white;"/>
</svg>
